<?xml version="1.0" encoding="UTF-8" standalone="no"?>
<!DOCTYPE svg PUBLIC "-//W3C//DTD SVG 1.1//EN"
 "http://www.w3.org/Graphics/SVG/1.1/DTD/svg11.dtd">
<!-- Generated by graphviz version 2.43.0 (0)
 -->
<!-- Title: INFRA Pages: 1 -->
<svg width="1761pt" height="797pt"
 viewBox="0.00 0.00 1760.50 797.00" xmlns="http://www.w3.org/2000/svg" xmlns:xlink="http://www.w3.org/1999/xlink">
<g id="graph0" class="graph" transform="scale(1 1) rotate(0) translate(4 793)">
<title>INFRA</title>
<polygon fill="white" stroke="transparent" points="-4,4 -4,-793 1756.5,-793 1756.5,4 -4,4"/>
<g id="clust1" class="cluster">
<title>cluster_legend</title>
<path fill="#f5f5f5" stroke="black" d="M20,-8C20,-8 140,-8 140,-8 146,-8 152,-14 152,-20 152,-20 152,-664 152,-664 152,-670 146,-676 140,-676 140,-676 20,-676 20,-676 14,-676 8,-670 8,-664 8,-664 8,-20 8,-20 8,-14 14,-8 20,-8"/>
<text text-anchor="middle" x="80" y="-662.4" font-family="Arial" font-size="12.00">Component Types</text>
</g>
<!-- Legend_Streaming -->
<g id="node1" class="node">
<title>Legend_Streaming</title>
<path fill="#ff9999" stroke="black" stroke-width="2" d="M123,-789C123,-789 37,-789 37,-789 31,-789 25,-783 25,-777 25,-777 25,-729 25,-729 25,-723 31,-717 37,-717 37,-717 123,-717 123,-717 129,-717 135,-723 135,-729 135,-729 135,-777 135,-777 135,-783 129,-789 123,-789"/>
<text text-anchor="middle" x="80" y="-749.3" font-family="Arial" font-size="14.00">Streaming APIs</text>
</g>
<!-- Legend_REST -->
<g id="node2" class="node">
<title>Legend_REST</title>
<path fill="#e78f81" stroke="black" stroke-width="2" d="M122,-647C122,-647 38,-647 38,-647 32,-647 26,-641 26,-635 26,-635 26,-587 26,-587 26,-581 32,-575 38,-575 38,-575 122,-575 122,-575 128,-575 134,-581 134,-587 134,-587 134,-635 134,-635 134,-641 128,-647 122,-647"/>
<text text-anchor="middle" x="80" y="-607.3" font-family="Arial" font-size="14.00">REST APIs</text>
</g>
<!-- Legend_Streaming&#45;&gt;Legend_REST -->
<!-- Legend_Core -->
<g id="node3" class="node">
<title>Legend_Core</title>
<path fill="#99ccff" stroke="black" stroke-width="2" d="M126,-524C126,-524 34,-524 34,-524 28,-524 22,-518 22,-512 22,-512 22,-464 22,-464 22,-458 28,-452 34,-452 34,-452 126,-452 126,-452 132,-452 138,-458 138,-464 138,-464 138,-512 138,-512 138,-518 132,-524 126,-524"/>
<text text-anchor="middle" x="80" y="-484.3" font-family="Arial" font-size="14.00">Core Processing</text>
</g>
<!-- Legend_REST&#45;&gt;Legend_Core -->
<!-- Legend_Functions -->
<g id="node4" class="node">
<title>Legend_Functions</title>
<path fill="#b7e0ff" stroke="black" stroke-width="2" d="M132,-415C132,-415 28,-415 28,-415 22,-415 16,-409 16,-403 16,-403 16,-355 16,-355 16,-349 22,-343 28,-343 28,-343 132,-343 132,-343 138,-343 144,-349 144,-355 144,-355 144,-403 144,-403 144,-409 138,-415 132,-415"/>
<text text-anchor="middle" x="80" y="-375.3" font-family="Arial" font-size="14.00">Lambda Functions</text>
</g>
<!-- Legend_Core&#45;&gt;Legend_Functions -->
<!-- Legend_Database -->
<g id="node5" class="node">
<title>Legend_Database</title>
<path fill="#ffe6cc" stroke="black" stroke-width="2" d="M122,-306C122,-306 38,-306 38,-306 32,-306 26,-300 26,-294 26,-294 26,-246 26,-246 26,-240 32,-234 38,-234 38,-234 122,-234 122,-234 128,-234 134,-240 134,-246 134,-246 134,-294 134,-294 134,-300 128,-306 122,-306"/>
<text text-anchor="middle" x="80" y="-266.3" font-family="Arial" font-size="14.00">Data Storage</text>
</g>
<!-- Legend_Functions&#45;&gt;Legend_Database -->
<!-- Legend_AI -->
<g id="node6" class="node">
<title>Legend_AI</title>
<path fill="#e6ffe6" stroke="black" stroke-width="2" d="M122,-197C122,-197 38,-197 38,-197 32,-197 26,-191 26,-185 26,-185 26,-137 26,-137 26,-131 32,-125 38,-125 38,-125 122,-125 122,-125 128,-125 134,-131 134,-137 134,-137 134,-185 134,-185 134,-191 128,-197 122,-197"/>
<text text-anchor="middle" x="80" y="-157.3" font-family="Arial" font-size="14.00">AI Services</text>
</g>
<!-- Legend_Database&#45;&gt;Legend_AI -->
<!-- Legend_Auth -->
<g id="node7" class="node">
<title>Legend_Auth</title>
<path fill="#e6e6e6" stroke="black" stroke-width="2" d="M122,-88C122,-88 38,-88 38,-88 32,-88 26,-82 26,-76 26,-76 26,-28 26,-28 26,-22 32,-16 38,-16 38,-16 122,-16 122,-16 128,-16 134,-22 134,-28 134,-28 134,-76 134,-76 134,-82 128,-88 122,-88"/>
<text text-anchor="middle" x="80" y="-48.3" font-family="Arial" font-size="14.00">Authentication</text>
</g>
<!-- Legend_AI&#45;&gt;Legend_Auth -->
<!-- WebSocketApi -->
<g id="node8" class="node">
<title>WebSocketApi</title>
<path fill="#ff9999" stroke="black" stroke-width="2" d="M466,-789C466,-789 308,-789 308,-789 302,-789 296,-783 296,-777 296,-777 296,-729 296,-729 296,-723 302,-717 308,-717 308,-717 466,-717 466,-717 472,-717 478,-723 478,-729 478,-729 478,-777 478,-777 478,-783 472,-789 466,-789"/>
<text text-anchor="middle" x="387" y="-764.3" font-family="Arial" font-size="14.00">WebSocketApi</text>
<text text-anchor="middle" x="387" y="-749.3" font-family="Arial" font-size="14.00">(AWS::ApiGatewayV2::Api)</text>
<text text-anchor="middle" x="387" y="-734.3" font-family="Arial" font-size="14.00">Real&#45;time Streaming</text>
</g>
<!-- MakeCallStreamFunction -->
<g id="node10" class="node">
<title>MakeCallStreamFunction</title>
<path fill="#99ccff" stroke="black" stroke-width="2" d="M336,-647C336,-647 172,-647 172,-647 166,-647 160,-641 160,-635 160,-635 160,-587 160,-587 160,-581 166,-575 172,-575 172,-575 336,-575 336,-575 342,-575 348,-581 348,-587 348,-587 348,-635 348,-635 348,-641 342,-647 336,-647"/>
<text text-anchor="middle" x="254" y="-622.3" font-family="Arial" font-size="14.00">MakeCallStreamFunction</text>
<text text-anchor="middle" x="254" y="-607.3" font-family="Arial" font-size="14.00">(Strands Agent + Streaming)</text>
<text text-anchor="middle" x="254" y="-592.3" font-family="Arial" font-size="14.00">Core AI Processing</text>
</g>
<!-- WebSocketApi&#45;&gt;MakeCallStreamFunction -->
<g id="edge9" class="edge">
<title>WebSocketApi&#45;&gt;MakeCallStreamFunction</title>
<path fill="none" stroke="black" d="M333,-716.8C325.94,-711.22 319.07,-705.22 313,-699 300.43,-686.11 288.79,-670.24 279.23,-655.59"/>
<polygon fill="black" stroke="black" points="282.17,-653.7 273.85,-647.14 276.27,-657.46 282.17,-653.7"/>
</g>
<!-- ConnectFunction -->
<g id="node11" class="node">
<title>ConnectFunction</title>
<path fill="#b7e0ff" stroke="black" stroke-width="2" d="M500,-647C500,-647 378,-647 378,-647 372,-647 366,-641 366,-635 366,-635 366,-587 366,-587 366,-581 372,-575 378,-575 378,-575 500,-575 500,-575 506,-575 512,-581 512,-587 512,-587 512,-635 512,-635 512,-641 506,-647 500,-647"/>
<text text-anchor="middle" x="439" y="-614.8" font-family="Arial" font-size="14.00">ConnectFunction</text>
<text text-anchor="middle" x="439" y="-599.8" font-family="Arial" font-size="14.00">(WebSocket Handler)</text>
</g>
<!-- WebSocketApi&#45;&gt;ConnectFunction -->
<g id="edge7" class="edge">
<title>WebSocketApi&#45;&gt;ConnectFunction</title>
<path fill="none" stroke="black" d="M404.37,-716.95C407.07,-711.02 409.71,-704.88 412,-699 417.26,-685.48 422.21,-670.48 426.41,-656.79"/>
<polygon fill="black" stroke="black" points="429.8,-657.68 429.32,-647.1 423.09,-655.67 429.8,-657.68"/>
</g>
<!-- DisconnectFunction -->
<g id="node12" class="node">
<title>DisconnectFunction</title>
<path fill="#b7e0ff" stroke="black" stroke-width="2" d="M664,-647C664,-647 542,-647 542,-647 536,-647 530,-641 530,-635 530,-635 530,-587 530,-587 530,-581 536,-575 542,-575 542,-575 664,-575 664,-575 670,-575 676,-581 676,-587 676,-587 676,-635 676,-635 676,-641 670,-647 664,-647"/>
<text text-anchor="middle" x="603" y="-614.8" font-family="Arial" font-size="14.00">DisconnectFunction</text>
<text text-anchor="middle" x="603" y="-599.8" font-family="Arial" font-size="14.00">(WebSocket Handler)</text>
</g>
<!-- WebSocketApi&#45;&gt;DisconnectFunction -->
<g id="edge8" class="edge">
<title>WebSocketApi&#45;&gt;DisconnectFunction</title>
<path fill="none" stroke="black" d="M453.25,-716.96C475.22,-704.67 499.54,-690.34 521,-676 531.42,-669.03 542.23,-661.13 552.43,-653.32"/>
<polygon fill="black" stroke="black" points="554.71,-655.99 560.48,-647.1 550.43,-650.45 554.71,-655.99"/>
</g>
<!-- CallitAPI -->
<g id="node9" class="node">
<title>CallitAPI</title>
<path fill="#e78f81" stroke="black" stroke-width="2" d="M1109.5,-647C1109.5,-647 978.5,-647 978.5,-647 972.5,-647 966.5,-641 966.5,-635 966.5,-635 966.5,-587 966.5,-587 966.5,-581 972.5,-575 978.5,-575 978.5,-575 1109.5,-575 1109.5,-575 1115.5,-575 1121.5,-581 1121.5,-587 1121.5,-587 1121.5,-635 1121.5,-635 1121.5,-641 1115.5,-647 1109.5,-647"/>
<text text-anchor="middle" x="1044" y="-622.3" font-family="Arial" font-size="14.00">CallitAPI</text>
<text text-anchor="middle" x="1044" y="-607.3" font-family="Arial" font-size="14.00">(AWS::Serverless::Api)</text>
<text text-anchor="middle" x="1044" y="-592.3" font-family="Arial" font-size="14.00">REST Operations</text>
</g>
<!-- CognitoUserPool -->
<g id="node16" class="node">
<title>CognitoUserPool</title>
<path fill="#e6e6e6" stroke="black" stroke-width="2" d="M1292,-524C1292,-524 1142,-524 1142,-524 1136,-524 1130,-518 1130,-512 1130,-512 1130,-464 1130,-464 1130,-458 1136,-452 1142,-452 1142,-452 1292,-452 1292,-452 1298,-452 1304,-458 1304,-464 1304,-464 1304,-512 1304,-512 1304,-518 1298,-524 1292,-524"/>
<text text-anchor="middle" x="1217" y="-491.8" font-family="Arial" font-size="14.00">CognitoUserPool</text>
<text text-anchor="middle" x="1217" y="-476.8" font-family="Arial" font-size="14.00">(AWS::Cognito::UserPool)</text>
</g>
<!-- CallitAPI&#45;&gt;CognitoUserPool -->
<g id="edge13" class="edge">
<title>CallitAPI&#45;&gt;CognitoUserPool</title>
<path fill="none" stroke="black" d="M1074.38,-574.82C1085.22,-563.5 1097.99,-551.45 1111,-542 1117.2,-537.49 1123.85,-533.18 1130.67,-529.09"/>
<polygon fill="black" stroke="black" points="1132.49,-532.08 1139.39,-524.04 1128.98,-526.02 1132.49,-532.08"/>
<text text-anchor="middle" x="1127.5" y="-545.8" font-family="Times,serif" font-size="14.00">auth</text>
</g>
<!-- MakeCallStreamFunction&#45;&gt;WebSocketApi -->
<g id="edge12" class="edge">
<title>MakeCallStreamFunction&#45;&gt;WebSocketApi</title>
<path fill="none" stroke="black" stroke-dasharray="5,2" d="M286.5,-647.33C301.22,-663.22 318.89,-682.14 335,-699 338.28,-702.43 341.69,-705.97 345.13,-709.52"/>
<polygon fill="black" stroke="black" points="342.7,-712.05 352.19,-716.77 347.72,-707.17 342.7,-712.05"/>
<text text-anchor="middle" x="371.5" y="-687.8" font-family="Times,serif" font-size="14.00">streaming</text>
</g>
<!-- BedrockService -->
<g id="node20" class="node">
<title>BedrockService</title>
<path fill="#e6ffe6" stroke="black" stroke-width="2" d="M293,-524C293,-524 187,-524 187,-524 181,-524 175,-518 175,-512 175,-512 175,-464 175,-464 175,-458 181,-452 187,-452 187,-452 293,-452 293,-452 299,-452 305,-458 305,-464 305,-464 305,-512 305,-512 305,-518 299,-524 293,-524"/>
<text text-anchor="middle" x="240" y="-499.3" font-family="Arial" font-size="14.00">Amazon Bedrock</text>
<text text-anchor="middle" x="240" y="-484.3" font-family="Arial" font-size="14.00">(AI Reasoning)</text>
<text text-anchor="middle" x="240" y="-469.3" font-family="Arial" font-size="14.00">Streaming Support</text>
</g>
<!-- MakeCallStreamFunction&#45;&gt;BedrockService -->
<g id="edge10" class="edge">
<title>MakeCallStreamFunction&#45;&gt;BedrockService</title>
<path fill="none" stroke="black" d="M249.91,-574.68C248.45,-562 246.77,-547.54 245.22,-534.14"/>
<polygon fill="black" stroke="black" points="248.69,-533.69 244.07,-524.16 241.74,-534.49 248.69,-533.69"/>
</g>
<!-- StrandsTools -->
<g id="node21" class="node">
<title>StrandsTools</title>
<path fill="#e6ffe6" stroke="black" stroke-width="2" d="M442.5,-524C442.5,-524 335.5,-524 335.5,-524 329.5,-524 323.5,-518 323.5,-512 323.5,-512 323.5,-464 323.5,-464 323.5,-458 329.5,-452 335.5,-452 335.5,-452 442.5,-452 442.5,-452 448.5,-452 454.5,-458 454.5,-464 454.5,-464 454.5,-512 454.5,-512 454.5,-518 448.5,-524 442.5,-524"/>
<text text-anchor="middle" x="389" y="-491.8" font-family="Arial" font-size="14.00">Strands Tools</text>
<text text-anchor="middle" x="389" y="-476.8" font-family="Arial" font-size="14.00">(current_time, etc.)</text>
</g>
<!-- MakeCallStreamFunction&#45;&gt;StrandsTools -->
<g id="edge11" class="edge">
<title>MakeCallStreamFunction&#45;&gt;StrandsTools</title>
<path fill="none" stroke="black" d="M293.41,-574.68C308.66,-561.01 326.24,-545.25 342.13,-531.01"/>
<polygon fill="black" stroke="black" points="344.66,-533.44 349.77,-524.16 339.99,-528.23 344.66,-533.44"/>
</g>
<!-- LogCall -->
<g id="node13" class="node">
<title>LogCall</title>
<path fill="#b7e0ff" stroke="black" stroke-width="2" d="M936,-789C936,-789 832,-789 832,-789 826,-789 820,-783 820,-777 820,-777 820,-729 820,-729 820,-723 826,-717 832,-717 832,-717 936,-717 936,-717 942,-717 948,-723 948,-729 948,-729 948,-777 948,-777 948,-783 942,-789 936,-789"/>
<text text-anchor="middle" x="884" y="-756.8" font-family="Arial" font-size="14.00">LogCall</text>
<text text-anchor="middle" x="884" y="-741.8" font-family="Arial" font-size="14.00">(Data Persistence)</text>
</g>
<!-- LogCall&#45;&gt;CallitAPI -->
<g id="edge14" class="edge">
<title>LogCall&#45;&gt;CallitAPI</title>
<path fill="none" stroke="black" d="M924.37,-716.67C946.25,-697.53 973.41,-673.76 996.32,-653.72"/>
<polygon fill="black" stroke="black" points="998.69,-656.29 1003.92,-647.07 994.09,-651.02 998.69,-656.29"/>
</g>
<!-- LogCall&#45;&gt;CognitoUserPool -->
<g id="edge19" class="edge">
<title>LogCall&#45;&gt;CognitoUserPool</title>
<path fill="none" stroke="black" d="M819.85,-739.65C784.18,-729.15 742.73,-710.1 721,-676 696.88,-638.14 692.1,-609.35 721,-575 770.93,-515.67 989.94,-497.27 1119.65,-491.56"/>
<polygon fill="black" stroke="black" points="1120.15,-495.05 1129.99,-491.13 1119.85,-488.05 1120.15,-495.05"/>
<text text-anchor="middle" x="766" y="-607.3" font-family="Times,serif" font-size="14.00">user context</text>
</g>
<!-- DynamoDBTable -->
<g id="node19" class="node">
<title>DynamoDBTable</title>
<path fill="#ffe6cc" stroke="black" stroke-width="2" d="M936,-647C936,-647 832,-647 832,-647 826,-647 820,-641 820,-635 820,-635 820,-587 820,-587 820,-581 826,-575 832,-575 832,-575 936,-575 936,-575 942,-575 948,-581 948,-587 948,-587 948,-635 948,-635 948,-641 942,-647 936,-647"/>
<text text-anchor="middle" x="884" y="-622.3" font-family="Arial" font-size="14.00">DynamoDB Table</text>
<text text-anchor="middle" x="884" y="-607.3" font-family="Arial" font-size="14.00">(calledit&#45;db)</text>
<text text-anchor="middle" x="884" y="-592.3" font-family="Arial" font-size="14.00">Prediction Storage</text>
</g>
<!-- LogCall&#45;&gt;DynamoDBTable -->
<g id="edge17" class="edge">
<title>LogCall&#45;&gt;DynamoDBTable</title>
<path fill="none" stroke="black" d="M884,-716.67C884,-698.68 884,-676.61 884,-657.37"/>
<polygon fill="black" stroke="black" points="887.5,-657.32 884,-647.32 880.5,-657.32 887.5,-657.32"/>
</g>
<!-- ListPredictions -->
<g id="node14" class="node">
<title>ListPredictions</title>
<path fill="#b7e0ff" stroke="black" stroke-width="2" d="M1087.5,-789C1087.5,-789 1000.5,-789 1000.5,-789 994.5,-789 988.5,-783 988.5,-777 988.5,-777 988.5,-729 988.5,-729 988.5,-723 994.5,-717 1000.5,-717 1000.5,-717 1087.5,-717 1087.5,-717 1093.5,-717 1099.5,-723 1099.5,-729 1099.5,-729 1099.5,-777 1099.5,-777 1099.5,-783 1093.5,-789 1087.5,-789"/>
<text text-anchor="middle" x="1044" y="-756.8" font-family="Arial" font-size="14.00">ListPredictions</text>
<text text-anchor="middle" x="1044" y="-741.8" font-family="Arial" font-size="14.00">(Data Retrieval)</text>
</g>
<!-- ListPredictions&#45;&gt;CallitAPI -->
<g id="edge15" class="edge">
<title>ListPredictions&#45;&gt;CallitAPI</title>
<path fill="none" stroke="black" d="M1044,-716.67C1044,-698.68 1044,-676.61 1044,-657.37"/>
<polygon fill="black" stroke="black" points="1047.5,-657.32 1044,-647.32 1040.5,-657.32 1047.5,-657.32"/>
</g>
<!-- ListPredictions&#45;&gt;CognitoUserPool -->
<g id="edge20" class="edge">
<title>ListPredictions&#45;&gt;CognitoUserPool</title>
<path fill="none" stroke="black" d="M1094.27,-716.9C1107.87,-705.26 1121.46,-691.32 1131,-676 1155.56,-636.56 1138.58,-617.21 1158,-575 1164.71,-560.43 1173.84,-545.64 1182.91,-532.54"/>
<polygon fill="black" stroke="black" points="1185.9,-534.36 1188.84,-524.18 1180.2,-530.31 1185.9,-534.36"/>
<text text-anchor="middle" x="1203" y="-607.3" font-family="Times,serif" font-size="14.00">user context</text>
</g>
<!-- ListPredictions&#45;&gt;DynamoDBTable -->
<g id="edge18" class="edge">
<title>ListPredictions&#45;&gt;DynamoDBTable</title>
<path fill="none" stroke="black" d="M1003.63,-716.67C981.75,-697.53 954.59,-673.76 931.68,-653.72"/>
<polygon fill="black" stroke="black" points="933.91,-651.02 924.08,-647.07 929.31,-656.29 933.91,-651.02"/>
</g>
<!-- AuthTokenFunction -->
<g id="node15" class="node">
<title>AuthTokenFunction</title>
<path fill="#b7e0ff" stroke="black" stroke-width="2" d="M1330,-789C1330,-789 1222,-789 1222,-789 1216,-789 1210,-783 1210,-777 1210,-777 1210,-729 1210,-729 1210,-723 1216,-717 1222,-717 1222,-717 1330,-717 1330,-717 1336,-717 1342,-723 1342,-729 1342,-729 1342,-777 1342,-777 1342,-783 1336,-789 1330,-789"/>
<text text-anchor="middle" x="1276" y="-756.8" font-family="Arial" font-size="14.00">AuthTokenFunction</text>
<text text-anchor="middle" x="1276" y="-741.8" font-family="Arial" font-size="14.00">(Token Exchange)</text>
</g>
<!-- AuthTokenFunction&#45;&gt;CallitAPI -->
<g id="edge16" class="edge">
<title>AuthTokenFunction&#45;&gt;CallitAPI</title>
<path fill="none" stroke="black" d="M1209.97,-718.09C1186.32,-705.44 1159.66,-690.59 1136,-676 1124.41,-668.85 1112.27,-660.83 1100.76,-652.94"/>
<polygon fill="black" stroke="black" points="1102.72,-650.04 1092.51,-647.23 1098.74,-655.8 1102.72,-650.04"/>
</g>
<!-- AuthTokenFunction&#45;&gt;CognitoUserPool -->
<g id="edge21" class="edge">
<title>AuthTokenFunction&#45;&gt;CognitoUserPool</title>
<path fill="none" stroke="black" d="M1273.85,-716.9C1271.04,-680.81 1264.87,-623.24 1252,-575 1248.32,-561.21 1243,-546.68 1237.62,-533.56"/>
<polygon fill="black" stroke="black" points="1240.82,-532.15 1233.71,-524.29 1234.37,-534.87 1240.82,-532.15"/>
</g>
<!-- UserPoolClient -->
<g id="node17" class="node">
<title>UserPoolClient</title>
<path fill="#e6e6e6" stroke="black" stroke-width="2" d="M1501.5,-647C1501.5,-647 1316.5,-647 1316.5,-647 1310.5,-647 1304.5,-641 1304.5,-635 1304.5,-635 1304.5,-587 1304.5,-587 1304.5,-581 1310.5,-575 1316.5,-575 1316.5,-575 1501.5,-575 1501.5,-575 1507.5,-575 1513.5,-581 1513.5,-587 1513.5,-587 1513.5,-635 1513.5,-635 1513.5,-641 1507.5,-647 1501.5,-647"/>
<text text-anchor="middle" x="1409" y="-614.8" font-family="Arial" font-size="14.00">UserPoolClient</text>
<text text-anchor="middle" x="1409" y="-599.8" font-family="Arial" font-size="14.00">(AWS::Cognito::UserPoolClient)</text>
</g>
<!-- AuthTokenFunction&#45;&gt;UserPoolClient -->
<g id="edge22" class="edge">
<title>AuthTokenFunction&#45;&gt;UserPoolClient</title>
<path fill="none" stroke="black" d="M1309.56,-716.67C1327.44,-697.85 1349.57,-674.56 1368.41,-654.73"/>
<polygon fill="black" stroke="black" points="1371.1,-656.98 1375.45,-647.32 1366.02,-652.16 1371.1,-656.98"/>
</g>
<!-- UserPoolClient&#45;&gt;CognitoUserPool -->
<g id="edge23" class="edge">
<title>UserPoolClient&#45;&gt;CognitoUserPool</title>
<path fill="none" stroke="black" d="M1353.21,-574.84C1330.63,-560.61 1304.42,-544.09 1281.06,-529.37"/>
<polygon fill="black" stroke="black" points="1282.93,-526.41 1272.6,-524.04 1279.19,-532.33 1282.93,-526.41"/>
</g>
<!-- UserPoolDomain -->
<g id="node18" class="node">
<title>UserPoolDomain</title>
<path fill="#e6e6e6" stroke="black" stroke-width="2" d="M1740.5,-647C1740.5,-647 1543.5,-647 1543.5,-647 1537.5,-647 1531.5,-641 1531.5,-635 1531.5,-635 1531.5,-587 1531.5,-587 1531.5,-581 1537.5,-575 1543.5,-575 1543.5,-575 1740.5,-575 1740.5,-575 1746.5,-575 1752.5,-581 1752.5,-587 1752.5,-587 1752.5,-635 1752.5,-635 1752.5,-641 1746.5,-647 1740.5,-647"/>
<text text-anchor="middle" x="1642" y="-614.8" font-family="Arial" font-size="14.00">UserPoolDomain</text>
<text text-anchor="middle" x="1642" y="-599.8" font-family="Arial" font-size="14.00">(AWS::Cognito::UserPoolDomain)</text>
</g>
<!-- UserPoolDomain&#45;&gt;CognitoUserPool -->
<g id="edge24" class="edge">
<title>UserPoolDomain&#45;&gt;CognitoUserPool</title>
<path fill="none" stroke="black" d="M1531.48,-577.44C1528.62,-576.62 1525.79,-575.8 1523,-575 1453.17,-554.92 1374.22,-532.74 1314.01,-515.94"/>
<polygon fill="black" stroke="black" points="1314.71,-512.5 1304.13,-513.19 1312.82,-519.24 1314.71,-512.5"/>
</g>
</g>
</svg>
