<?xml version="1.0" encoding="UTF-8" standalone="no"?>
<!DOCTYPE svg PUBLIC "-//W3C//DTD SVG 1.1//EN"
 "http://www.w3.org/Graphics/SVG/1.1/DTD/svg11.dtd">
<!-- Generated by graphviz version 12.1.1 (20240910.0053)
 -->
<!-- Title: INFRA Pages: 1 -->
<svg width="1256pt" height="296pt"
 viewBox="0.00 0.00 1255.60 296.00" xmlns="http://www.w3.org/2000/svg" xmlns:xlink="http://www.w3.org/1999/xlink">
<g id="graph0" class="graph" transform="scale(1 1) rotate(0) translate(4 292)">
<title>INFRA</title>
<polygon fill="white" stroke="none" points="-4,4 -4,-292 1251.6,-292 1251.6,4 -4,4"/>
<!-- CallitAPI -->
<g id="node1" class="node">
<title>CallitAPI</title>
<path fill="#e78f81" stroke="black" stroke-width="2" d="M690.87,-180C690.87,-180 555.73,-180 555.73,-180 549.73,-180 543.73,-174 543.73,-168 543.73,-168 543.73,-120 543.73,-120 543.73,-114 549.73,-108 555.73,-108 555.73,-108 690.87,-108 690.87,-108 696.87,-108 702.87,-114 702.87,-120 702.87,-120 702.87,-168 702.87,-168 702.87,-174 696.87,-180 690.87,-180"/>
<text text-anchor="middle" x="623.3" y="-148.2" font-family="Arial" font-size="14.00">CallitAPI</text>
<text text-anchor="middle" x="623.3" y="-131.4" font-family="Arial" font-size="14.00">(AWS::Serverless::Api)</text>
</g>
<!-- CognitoUserPool -->
<g id="node8" class="node">
<title>CognitoUserPool</title>
<path fill="#e6e6e6" stroke="black" stroke-width="2" d="M754.6,-72C754.6,-72 600,-72 600,-72 594,-72 588,-66 588,-60 588,-60 588,-12 588,-12 588,-6 594,0 600,0 600,0 754.6,0 754.6,0 760.6,0 766.6,-6 766.6,-12 766.6,-12 766.6,-60 766.6,-60 766.6,-66 760.6,-72 754.6,-72"/>
<text text-anchor="middle" x="677.3" y="-40.2" font-family="Arial" font-size="14.00">CognitoUserPool</text>
<text text-anchor="middle" x="677.3" y="-23.4" font-family="Arial" font-size="14.00">(AWS::Cognito::UserPool)</text>
</g>
<!-- CallitAPI&#45;&gt;CognitoUserPool -->
<g id="edge1" class="edge">
<title>CallitAPI&#45;&gt;CognitoUserPool</title>
<path fill="none" stroke="black" d="M641.28,-107.7C645.43,-99.57 649.89,-90.8 654.22,-82.31"/>
<polygon fill="black" stroke="black" points="657.29,-83.99 658.71,-73.49 651.05,-80.81 657.29,-83.99"/>
</g>
<!-- HelloWorldFunction -->
<g id="node2" class="node">
<title>HelloWorldFunction</title>
<path fill="#b7e0ff" stroke="black" stroke-width="2" d="M602.6,-288C602.6,-288 434,-288 434,-288 428,-288 422,-282 422,-276 422,-276 422,-228 422,-228 422,-222 428,-216 434,-216 434,-216 602.6,-216 602.6,-216 608.6,-216 614.6,-222 614.6,-228 614.6,-228 614.6,-276 614.6,-276 614.6,-282 608.6,-288 602.6,-288"/>
<text text-anchor="middle" x="518.3" y="-256.2" font-family="Arial" font-size="14.00">HelloWorldFunction</text>
<text text-anchor="middle" x="518.3" y="-239.4" font-family="Arial" font-size="14.00">(AWS::Serverless::Function)</text>
</g>
<!-- HelloWorldFunction&#45;&gt;CallitAPI -->
<g id="edge2" class="edge">
<title>HelloWorldFunction&#45;&gt;CallitAPI</title>
<path fill="none" stroke="black" d="M553.26,-215.7C562.03,-206.85 571.53,-197.26 580.63,-188.08"/>
<polygon fill="black" stroke="black" points="582.87,-190.79 587.42,-181.22 577.9,-185.86 582.87,-190.79"/>
</g>
<!-- PromptBedrockFunction -->
<g id="node3" class="node">
<title>PromptBedrockFunction</title>
<path fill="#b7e0ff" stroke="black" stroke-width="2" d="M813.6,-288C813.6,-288 645,-288 645,-288 639,-288 633,-282 633,-276 633,-276 633,-228 633,-228 633,-222 639,-216 645,-216 645,-216 813.6,-216 813.6,-216 819.6,-216 825.6,-222 825.6,-228 825.6,-228 825.6,-276 825.6,-276 825.6,-282 819.6,-288 813.6,-288"/>
<text text-anchor="middle" x="729.3" y="-256.2" font-family="Arial" font-size="14.00">PromptBedrockFunction</text>
<text text-anchor="middle" x="729.3" y="-239.4" font-family="Arial" font-size="14.00">(AWS::Serverless::Function)</text>
</g>
<!-- PromptBedrockFunction&#45;&gt;CallitAPI -->
<g id="edge3" class="edge">
<title>PromptBedrockFunction&#45;&gt;CallitAPI</title>
<path fill="none" stroke="black" d="M694,-215.7C685.15,-206.85 675.56,-197.26 666.38,-188.08"/>
<polygon fill="black" stroke="black" points="669.06,-185.81 659.51,-181.21 664.11,-190.76 669.06,-185.81"/>
</g>
<!-- MakeCall -->
<g id="node4" class="node">
<title>MakeCall</title>
<path fill="#b7e0ff" stroke="black" stroke-width="2" d="M1024.6,-288C1024.6,-288 856,-288 856,-288 850,-288 844,-282 844,-276 844,-276 844,-228 844,-228 844,-222 850,-216 856,-216 856,-216 1024.6,-216 1024.6,-216 1030.6,-216 1036.6,-222 1036.6,-228 1036.6,-228 1036.6,-276 1036.6,-276 1036.6,-282 1030.6,-288 1024.6,-288"/>
<text text-anchor="middle" x="940.3" y="-256.2" font-family="Arial" font-size="14.00">MakeCall</text>
<text text-anchor="middle" x="940.3" y="-239.4" font-family="Arial" font-size="14.00">(AWS::Serverless::Function)</text>
</g>
<!-- MakeCall&#45;&gt;CallitAPI -->
<g id="edge4" class="edge">
<title>MakeCall&#45;&gt;CallitAPI</title>
<path fill="none" stroke="black" d="M843.56,-218.97C840.44,-217.96 837.35,-216.97 834.3,-216 782.47,-199.47 768.81,-197.5 717.3,-180 716.15,-179.61 714.98,-179.21 713.82,-178.81"/>
<polygon fill="black" stroke="black" points="715.21,-175.59 704.62,-175.6 712.91,-182.2 715.21,-175.59"/>
</g>
<!-- LogCall -->
<g id="node5" class="node">
<title>LogCall</title>
<path fill="#b7e0ff" stroke="black" stroke-width="2" d="M180.6,-288C180.6,-288 12,-288 12,-288 6,-288 0,-282 0,-276 0,-276 0,-228 0,-228 0,-222 6,-216 12,-216 12,-216 180.6,-216 180.6,-216 186.6,-216 192.6,-222 192.6,-228 192.6,-228 192.6,-276 192.6,-276 192.6,-282 186.6,-288 180.6,-288"/>
<text text-anchor="middle" x="96.3" y="-256.2" font-family="Arial" font-size="14.00">LogCall</text>
<text text-anchor="middle" x="96.3" y="-239.4" font-family="Arial" font-size="14.00">(AWS::Serverless::Function)</text>
</g>
<!-- LogCall&#45;&gt;CallitAPI -->
<g id="edge5" class="edge">
<title>LogCall&#45;&gt;CallitAPI</title>
<path fill="none" stroke="black" d="M192.89,-218.44C196.05,-217.59 199.2,-216.77 202.3,-216 314.53,-188.18 446.31,-167.9 532.14,-156.3"/>
<polygon fill="black" stroke="black" points="532.47,-159.79 541.92,-154.99 531.54,-152.85 532.47,-159.79"/>
</g>
<!-- LogCall&#45;&gt;CognitoUserPool -->
<g id="edge6" class="edge">
<title>LogCall&#45;&gt;CognitoUserPool</title>
<path fill="none" stroke="black" d="M165.61,-215.52C228.54,-184.28 324.49,-139.05 411.3,-108 464.97,-88.8 526.36,-72.09 576.63,-59.7"/>
<polygon fill="black" stroke="black" points="577.15,-63.18 586.03,-57.41 575.49,-56.38 577.15,-63.18"/>
</g>
<!-- ListPredictions -->
<g id="node6" class="node">
<title>ListPredictions</title>
<path fill="#b7e0ff" stroke="black" stroke-width="2" d="M391.6,-288C391.6,-288 223,-288 223,-288 217,-288 211,-282 211,-276 211,-276 211,-228 211,-228 211,-222 217,-216 223,-216 223,-216 391.6,-216 391.6,-216 397.6,-216 403.6,-222 403.6,-228 403.6,-228 403.6,-276 403.6,-276 403.6,-282 397.6,-288 391.6,-288"/>
<text text-anchor="middle" x="307.3" y="-256.2" font-family="Arial" font-size="14.00">ListPredictions</text>
<text text-anchor="middle" x="307.3" y="-239.4" font-family="Arial" font-size="14.00">(AWS::Serverless::Function)</text>
</g>
<!-- ListPredictions&#45;&gt;CallitAPI -->
<g id="edge7" class="edge">
<title>ListPredictions&#45;&gt;CallitAPI</title>
<path fill="none" stroke="black" d="M403.83,-218.62C444.73,-204.9 492.14,-189 532.41,-175.49"/>
<polygon fill="black" stroke="black" points="533.49,-178.82 541.86,-172.32 531.26,-172.18 533.49,-178.82"/>
</g>
<!-- ListPredictions&#45;&gt;CognitoUserPool -->
<g id="edge8" class="edge">
<title>ListPredictions&#45;&gt;CognitoUserPool</title>
<path fill="none" stroke="black" d="M360.04,-215.64C405.46,-185.7 473.17,-142.31 534.3,-108 552.74,-97.65 572.89,-87.16 592.09,-77.54"/>
<polygon fill="black" stroke="black" points="593.59,-80.7 600.98,-73.12 590.47,-74.44 593.59,-80.7"/>
</g>
<!-- AuthTokenFunction -->
<g id="node7" class="node">
<title>AuthTokenFunction</title>
<path fill="#b7e0ff" stroke="black" stroke-width="2" d="M1235.6,-288C1235.6,-288 1067,-288 1067,-288 1061,-288 1055,-282 1055,-276 1055,-276 1055,-228 1055,-228 1055,-222 1061,-216 1067,-216 1067,-216 1235.6,-216 1235.6,-216 1241.6,-216 1247.6,-222 1247.6,-228 1247.6,-228 1247.6,-276 1247.6,-276 1247.6,-282 1241.6,-288 1235.6,-288"/>
<text text-anchor="middle" x="1151.3" y="-256.2" font-family="Arial" font-size="14.00">AuthTokenFunction</text>
<text text-anchor="middle" x="1151.3" y="-239.4" font-family="Arial" font-size="14.00">(AWS::Serverless::Function)</text>
</g>
<!-- AuthTokenFunction&#45;&gt;CallitAPI -->
<g id="edge9" class="edge">
<title>AuthTokenFunction&#45;&gt;CallitAPI</title>
<path fill="none" stroke="black" d="M1054.77,-218.2C1051.59,-217.42 1048.42,-216.68 1045.3,-216 902,-184.84 859.99,-213.84 717.3,-180 716.28,-179.76 715.26,-179.51 714.23,-179.25"/>
<polygon fill="black" stroke="black" points="715.17,-175.88 704.6,-176.63 713.33,-182.63 715.17,-175.88"/>
</g>
<!-- AuthTokenFunction&#45;&gt;CognitoUserPool -->
<g id="edge10" class="edge">
<title>AuthTokenFunction&#45;&gt;CognitoUserPool</title>
<path fill="none" stroke="black" d="M1054.76,-218.25C1051.58,-217.45 1048.42,-216.7 1045.3,-216 980.85,-201.58 804.43,-217.84 750.3,-180 748.03,-178.41 720.41,-123.62 699.81,-82.33"/>
<polygon fill="black" stroke="black" points="703.01,-80.91 695.42,-73.52 696.75,-84.03 703.01,-80.91"/>
</g>
<!-- UserPoolClient -->
<g id="node9" class="node">
<title>UserPoolClient</title>
<path fill="#e6e6e6" stroke="black" stroke-width="2" d="M961.5,-180C961.5,-180 771.1,-180 771.1,-180 765.1,-180 759.1,-174 759.1,-168 759.1,-168 759.1,-120 759.1,-120 759.1,-114 765.1,-108 771.1,-108 771.1,-108 961.5,-108 961.5,-108 967.5,-108 973.5,-114 973.5,-120 973.5,-120 973.5,-168 973.5,-168 973.5,-174 967.5,-180 961.5,-180"/>
<text text-anchor="middle" x="866.3" y="-148.2" font-family="Arial" font-size="14.00">UserPoolClient</text>
<text text-anchor="middle" x="866.3" y="-131.4" font-family="Arial" font-size="14.00">(AWS::Cognito::UserPoolClient)</text>
</g>
<!-- AuthTokenFunction&#45;&gt;UserPoolClient -->
<g id="edge11" class="edge">
<title>AuthTokenFunction&#45;&gt;UserPoolClient</title>
<path fill="none" stroke="black" d="M1056,-215.56C1029.03,-205.52 999.51,-194.54 971.96,-184.3"/>
<polygon fill="black" stroke="black" points="973.52,-181.14 962.93,-180.94 971.08,-187.7 973.52,-181.14"/>
</g>
<!-- UserPoolClient&#45;&gt;CognitoUserPool -->
<g id="edge12" class="edge">
<title>UserPoolClient&#45;&gt;CognitoUserPool</title>
<path fill="none" stroke="black" d="M803.1,-107.56C786.08,-98.01 767.53,-87.61 750.03,-77.79"/>
<polygon fill="black" stroke="black" points="752.19,-74.99 741.76,-73.15 748.77,-81.1 752.19,-74.99"/>
</g>
<!-- UserPoolDomain -->
<g id="node10" class="node">
<title>UserPoolDomain</title>
<path fill="#e6e6e6" stroke="black" stroke-width="2" d="M1206.72,-180C1206.72,-180 1003.88,-180 1003.88,-180 997.88,-180 991.88,-174 991.88,-168 991.88,-168 991.88,-120 991.88,-120 991.88,-114 997.88,-108 1003.88,-108 1003.88,-108 1206.72,-108 1206.72,-108 1212.72,-108 1218.72,-114 1218.72,-120 1218.72,-120 1218.72,-168 1218.72,-168 1218.72,-174 1212.72,-180 1206.72,-180"/>
<text text-anchor="middle" x="1105.3" y="-148.2" font-family="Arial" font-size="14.00">UserPoolDomain</text>
<text text-anchor="middle" x="1105.3" y="-131.4" font-family="Arial" font-size="14.00">(AWS::Cognito::UserPoolDomain)</text>
</g>
<!-- UserPoolDomain&#45;&gt;CognitoUserPool -->
<g id="edge13" class="edge">
<title>UserPoolDomain&#45;&gt;CognitoUserPool</title>
<path fill="none" stroke="black" d="M991.43,-110.39C988.36,-109.58 985.31,-108.78 982.3,-108 914.41,-90.45 837.52,-72.56 777.92,-59.13"/>
<polygon fill="black" stroke="black" points="779,-55.79 768.47,-57.01 777.46,-62.62 779,-55.79"/>
</g>
</g>
</svg>
