<?xml version="1.0" encoding="UTF-8" standalone="no"?>
<!DOCTYPE svg PUBLIC "-//W3C//DTD SVG 1.1//EN"
 "http://www.w3.org/Graphics/SVG/1.1/DTD/svg11.dtd">
<!-- Generated by graphviz version 12.1.1 (20240910.0053)
 -->
<!-- Title: INFRA Pages: 1 -->
<svg width="1678pt" height="296pt"
 viewBox="0.00 0.00 1677.60 296.00" xmlns="http://www.w3.org/2000/svg" xmlns:xlink="http://www.w3.org/1999/xlink">
<g id="graph0" class="graph" transform="scale(1 1) rotate(0) translate(4 292)">
<title>INFRA</title>
<polygon fill="white" stroke="none" points="-4,4 -4,-292 1673.6,-292 1673.6,4 -4,4"/>
<!-- CallitAPI -->
<g id="node1" class="node">
<title>CallitAPI</title>
<path fill="#e78f81" stroke="black" stroke-width="2" d="M901.87,-180C901.87,-180 766.73,-180 766.73,-180 760.73,-180 754.73,-174 754.73,-168 754.73,-168 754.73,-120 754.73,-120 754.73,-114 760.73,-108 766.73,-108 766.73,-108 901.87,-108 901.87,-108 907.87,-108 913.87,-114 913.87,-120 913.87,-120 913.87,-168 913.87,-168 913.87,-174 907.87,-180 901.87,-180"/>
<text text-anchor="middle" x="834.3" y="-148.2" font-family="Arial" font-size="14.00">CallitAPI</text>
<text text-anchor="middle" x="834.3" y="-131.4" font-family="Arial" font-size="14.00">(AWS::Serverless::Api)</text>
</g>
<!-- CognitoUserPool -->
<g id="node10" class="node">
<title>CognitoUserPool</title>
<path fill="#e6e6e6" stroke="black" stroke-width="2" d="M965.6,-72C965.6,-72 811,-72 811,-72 805,-72 799,-66 799,-60 799,-60 799,-12 799,-12 799,-6 805,0 811,0 811,0 965.6,0 965.6,0 971.6,0 977.6,-6 977.6,-12 977.6,-12 977.6,-60 977.6,-60 977.6,-66 971.6,-72 965.6,-72"/>
<text text-anchor="middle" x="888.3" y="-40.2" font-family="Arial" font-size="14.00">CognitoUserPool</text>
<text text-anchor="middle" x="888.3" y="-23.4" font-family="Arial" font-size="14.00">(AWS::Cognito::UserPool)</text>
</g>
<!-- CallitAPI&#45;&gt;CognitoUserPool -->
<g id="edge1" class="edge">
<title>CallitAPI&#45;&gt;CognitoUserPool</title>
<path fill="none" stroke="black" d="M852.28,-107.7C856.43,-99.57 860.89,-90.8 865.22,-82.31"/>
<polygon fill="black" stroke="black" points="868.29,-83.99 869.71,-73.49 862.05,-80.81 868.29,-83.99"/>
</g>
<!-- HelloWorldFunction -->
<g id="node2" class="node">
<title>HelloWorldFunction</title>
<path fill="#b7e0ff" stroke="black" stroke-width="2" d="M813.6,-288C813.6,-288 645,-288 645,-288 639,-288 633,-282 633,-276 633,-276 633,-228 633,-228 633,-222 639,-216 645,-216 645,-216 813.6,-216 813.6,-216 819.6,-216 825.6,-222 825.6,-228 825.6,-228 825.6,-276 825.6,-276 825.6,-282 819.6,-288 813.6,-288"/>
<text text-anchor="middle" x="729.3" y="-256.2" font-family="Arial" font-size="14.00">HelloWorldFunction</text>
<text text-anchor="middle" x="729.3" y="-239.4" font-family="Arial" font-size="14.00">(AWS::Serverless::Function)</text>
</g>
<!-- HelloWorldFunction&#45;&gt;CallitAPI -->
<g id="edge2" class="edge">
<title>HelloWorldFunction&#45;&gt;CallitAPI</title>
<path fill="none" stroke="black" d="M764.26,-215.7C773.03,-206.85 782.53,-197.26 791.63,-188.08"/>
<polygon fill="black" stroke="black" points="793.87,-190.79 798.42,-181.22 788.9,-185.86 793.87,-190.79"/>
</g>
<!-- PromptBedrockFunction -->
<g id="node3" class="node">
<title>PromptBedrockFunction</title>
<path fill="#b7e0ff" stroke="black" stroke-width="2" d="M1024.6,-288C1024.6,-288 856,-288 856,-288 850,-288 844,-282 844,-276 844,-276 844,-228 844,-228 844,-222 850,-216 856,-216 856,-216 1024.6,-216 1024.6,-216 1030.6,-216 1036.6,-222 1036.6,-228 1036.6,-228 1036.6,-276 1036.6,-276 1036.6,-282 1030.6,-288 1024.6,-288"/>
<text text-anchor="middle" x="940.3" y="-256.2" font-family="Arial" font-size="14.00">PromptBedrockFunction</text>
<text text-anchor="middle" x="940.3" y="-239.4" font-family="Arial" font-size="14.00">(AWS::Serverless::Function)</text>
</g>
<!-- PromptBedrockFunction&#45;&gt;CallitAPI -->
<g id="edge3" class="edge">
<title>PromptBedrockFunction&#45;&gt;CallitAPI</title>
<path fill="none" stroke="black" d="M905,-215.7C896.15,-206.85 886.56,-197.26 877.38,-188.08"/>
<polygon fill="black" stroke="black" points="880.06,-185.81 870.51,-181.21 875.11,-190.76 880.06,-185.81"/>
</g>
<!-- PromptAgent -->
<g id="node4" class="node">
<title>PromptAgent</title>
<path fill="#b7e0ff" stroke="black" stroke-width="2" d="M1235.6,-288C1235.6,-288 1067,-288 1067,-288 1061,-288 1055,-282 1055,-276 1055,-276 1055,-228 1055,-228 1055,-222 1061,-216 1067,-216 1067,-216 1235.6,-216 1235.6,-216 1241.6,-216 1247.6,-222 1247.6,-228 1247.6,-228 1247.6,-276 1247.6,-276 1247.6,-282 1241.6,-288 1235.6,-288"/>
<text text-anchor="middle" x="1151.3" y="-256.2" font-family="Arial" font-size="14.00">PromptAgent</text>
<text text-anchor="middle" x="1151.3" y="-239.4" font-family="Arial" font-size="14.00">(AWS::Serverless::Function)</text>
</g>
<!-- PromptAgent&#45;&gt;CallitAPI -->
<g id="edge4" class="edge">
<title>PromptAgent&#45;&gt;CallitAPI</title>
<path fill="none" stroke="black" d="M1054.56,-218.97C1051.44,-217.96 1048.35,-216.97 1045.3,-216 993.47,-199.47 979.81,-197.5 928.3,-180 927.15,-179.61 925.98,-179.21 924.82,-178.81"/>
<polygon fill="black" stroke="black" points="926.21,-175.59 915.62,-175.6 923.91,-182.2 926.21,-175.59"/>
</g>
<!-- StrandsMakeCall -->
<g id="node5" class="node">
<title>StrandsMakeCall</title>
<path fill="#b7e0ff" stroke="black" stroke-width="2" d="M1446.6,-288C1446.6,-288 1278,-288 1278,-288 1272,-288 1266,-282 1266,-276 1266,-276 1266,-228 1266,-228 1266,-222 1272,-216 1278,-216 1278,-216 1446.6,-216 1446.6,-216 1452.6,-216 1458.6,-222 1458.6,-228 1458.6,-228 1458.6,-276 1458.6,-276 1458.6,-282 1452.6,-288 1446.6,-288"/>
<text text-anchor="middle" x="1362.3" y="-256.2" font-family="Arial" font-size="14.00">StrandsMakeCall</text>
<text text-anchor="middle" x="1362.3" y="-239.4" font-family="Arial" font-size="14.00">(AWS::Serverless::Function)</text>
</g>
<!-- StrandsMakeCall&#45;&gt;CallitAPI -->
<g id="edge5" class="edge">
<title>StrandsMakeCall&#45;&gt;CallitAPI</title>
<path fill="none" stroke="black" d="M1265.77,-218.2C1262.59,-217.42 1259.42,-216.68 1256.3,-216 1113,-184.84 1070.99,-213.84 928.3,-180 927.28,-179.76 926.26,-179.51 925.23,-179.25"/>
<polygon fill="black" stroke="black" points="926.17,-175.88 915.6,-176.63 924.33,-182.63 926.17,-175.88"/>
</g>
<!-- MakeCall -->
<g id="node6" class="node">
<title>MakeCall</title>
<path fill="#b7e0ff" stroke="black" stroke-width="2" d="M602.6,-288C602.6,-288 434,-288 434,-288 428,-288 422,-282 422,-276 422,-276 422,-228 422,-228 422,-222 428,-216 434,-216 434,-216 602.6,-216 602.6,-216 608.6,-216 614.6,-222 614.6,-228 614.6,-228 614.6,-276 614.6,-276 614.6,-282 608.6,-288 602.6,-288"/>
<text text-anchor="middle" x="518.3" y="-256.2" font-family="Arial" font-size="14.00">MakeCall</text>
<text text-anchor="middle" x="518.3" y="-239.4" font-family="Arial" font-size="14.00">(AWS::Serverless::Function)</text>
</g>
<!-- MakeCall&#45;&gt;CallitAPI -->
<g id="edge6" class="edge">
<title>MakeCall&#45;&gt;CallitAPI</title>
<path fill="none" stroke="black" d="M614.83,-218.62C655.73,-204.9 703.14,-189 743.41,-175.49"/>
<polygon fill="black" stroke="black" points="744.49,-178.82 752.86,-172.32 742.26,-172.18 744.49,-178.82"/>
</g>
<!-- LogCall -->
<g id="node7" class="node">
<title>LogCall</title>
<path fill="#b7e0ff" stroke="black" stroke-width="2" d="M180.6,-288C180.6,-288 12,-288 12,-288 6,-288 0,-282 0,-276 0,-276 0,-228 0,-228 0,-222 6,-216 12,-216 12,-216 180.6,-216 180.6,-216 186.6,-216 192.6,-222 192.6,-228 192.6,-228 192.6,-276 192.6,-276 192.6,-282 186.6,-288 180.6,-288"/>
<text text-anchor="middle" x="96.3" y="-256.2" font-family="Arial" font-size="14.00">LogCall</text>
<text text-anchor="middle" x="96.3" y="-239.4" font-family="Arial" font-size="14.00">(AWS::Serverless::Function)</text>
</g>
<!-- LogCall&#45;&gt;CallitAPI -->
<g id="edge7" class="edge">
<title>LogCall&#45;&gt;CallitAPI</title>
<path fill="none" stroke="black" d="M192.83,-218.21C196.01,-217.42 199.18,-216.68 202.3,-216 392.14,-174.46 619.68,-156.48 743.34,-149.3"/>
<polygon fill="black" stroke="black" points="743.32,-152.81 753.11,-148.74 742.93,-145.82 743.32,-152.81"/>
</g>
<!-- LogCall&#45;&gt;CognitoUserPool -->
<g id="edge8" class="edge">
<title>LogCall&#45;&gt;CognitoUserPool</title>
<path fill="none" stroke="black" d="M185.92,-215.54C268.58,-183.88 395.24,-138 508.3,-108 601.81,-83.18 710.51,-63.8 787.63,-51.6"/>
<polygon fill="black" stroke="black" points="787.95,-55.1 797.28,-50.09 786.86,-48.18 787.95,-55.1"/>
</g>
<!-- ListPredictions -->
<g id="node8" class="node">
<title>ListPredictions</title>
<path fill="#b7e0ff" stroke="black" stroke-width="2" d="M391.6,-288C391.6,-288 223,-288 223,-288 217,-288 211,-282 211,-276 211,-276 211,-228 211,-228 211,-222 217,-216 223,-216 223,-216 391.6,-216 391.6,-216 397.6,-216 403.6,-222 403.6,-228 403.6,-228 403.6,-276 403.6,-276 403.6,-282 397.6,-288 391.6,-288"/>
<text text-anchor="middle" x="307.3" y="-256.2" font-family="Arial" font-size="14.00">ListPredictions</text>
<text text-anchor="middle" x="307.3" y="-239.4" font-family="Arial" font-size="14.00">(AWS::Serverless::Function)</text>
</g>
<!-- ListPredictions&#45;&gt;CallitAPI -->
<g id="edge9" class="edge">
<title>ListPredictions&#45;&gt;CallitAPI</title>
<path fill="none" stroke="black" d="M403.89,-218.44C407.05,-217.59 410.2,-216.77 413.3,-216 429.22,-212.05 624.47,-179.61 743.39,-159.97"/>
<polygon fill="black" stroke="black" points="743.87,-163.44 753.16,-158.36 742.73,-156.53 743.87,-163.44"/>
</g>
<!-- ListPredictions&#45;&gt;CognitoUserPool -->
<g id="edge10" class="edge">
<title>ListPredictions&#45;&gt;CognitoUserPool</title>
<path fill="none" stroke="black" d="M403.57,-215.54C509.84,-176.4 680.1,-113.68 787.97,-73.95"/>
<polygon fill="black" stroke="black" points="788.94,-77.33 797.12,-70.59 786.52,-70.76 788.94,-77.33"/>
</g>
<!-- AuthTokenFunction -->
<g id="node9" class="node">
<title>AuthTokenFunction</title>
<path fill="#b7e0ff" stroke="black" stroke-width="2" d="M1657.6,-288C1657.6,-288 1489,-288 1489,-288 1483,-288 1477,-282 1477,-276 1477,-276 1477,-228 1477,-228 1477,-222 1483,-216 1489,-216 1489,-216 1657.6,-216 1657.6,-216 1663.6,-216 1669.6,-222 1669.6,-228 1669.6,-228 1669.6,-276 1669.6,-276 1669.6,-282 1663.6,-288 1657.6,-288"/>
<text text-anchor="middle" x="1573.3" y="-256.2" font-family="Arial" font-size="14.00">AuthTokenFunction</text>
<text text-anchor="middle" x="1573.3" y="-239.4" font-family="Arial" font-size="14.00">(AWS::Serverless::Function)</text>
</g>
<!-- AuthTokenFunction&#45;&gt;CallitAPI -->
<g id="edge11" class="edge">
<title>AuthTokenFunction&#45;&gt;CallitAPI</title>
<path fill="none" stroke="black" d="M1476.51,-217.96C1473.42,-217.25 1470.34,-216.59 1467.3,-216 1231.66,-170 1163.04,-230.42 928.3,-180 927.29,-179.78 926.29,-179.56 925.27,-179.33"/>
<polygon fill="black" stroke="black" points="926.37,-175.99 915.81,-176.92 924.64,-182.78 926.37,-175.99"/>
</g>
<!-- AuthTokenFunction&#45;&gt;CognitoUserPool -->
<g id="edge12" class="edge">
<title>AuthTokenFunction&#45;&gt;CognitoUserPool</title>
<path fill="none" stroke="black" d="M1476.51,-217.98C1473.42,-217.26 1470.34,-216.6 1467.3,-216 1356.71,-194.16 1055.29,-242.24 961.3,-180 958.99,-178.47 931.38,-123.66 910.8,-82.36"/>
<polygon fill="black" stroke="black" points="914,-80.93 906.41,-73.54 907.73,-84.05 914,-80.93"/>
</g>
<!-- UserPoolClient -->
<g id="node11" class="node">
<title>UserPoolClient</title>
<path fill="#e6e6e6" stroke="black" stroke-width="2" d="M1172.5,-180C1172.5,-180 982.1,-180 982.1,-180 976.1,-180 970.1,-174 970.1,-168 970.1,-168 970.1,-120 970.1,-120 970.1,-114 976.1,-108 982.1,-108 982.1,-108 1172.5,-108 1172.5,-108 1178.5,-108 1184.5,-114 1184.5,-120 1184.5,-120 1184.5,-168 1184.5,-168 1184.5,-174 1178.5,-180 1172.5,-180"/>
<text text-anchor="middle" x="1077.3" y="-148.2" font-family="Arial" font-size="14.00">UserPoolClient</text>
<text text-anchor="middle" x="1077.3" y="-131.4" font-family="Arial" font-size="14.00">(AWS::Cognito::UserPoolClient)</text>
</g>
<!-- AuthTokenFunction&#45;&gt;UserPoolClient -->
<g id="edge13" class="edge">
<title>AuthTokenFunction&#45;&gt;UserPoolClient</title>
<path fill="none" stroke="black" d="M1476.75,-218.29C1473.57,-217.48 1470.42,-216.71 1467.3,-216 1351.5,-189.49 1316.04,-204.67 1195.98,-180.21"/>
<polygon fill="black" stroke="black" points="1196.86,-176.82 1186.36,-178.19 1195.43,-183.67 1196.86,-176.82"/>
</g>
<!-- UserPoolClient&#45;&gt;CognitoUserPool -->
<g id="edge14" class="edge">
<title>UserPoolClient&#45;&gt;CognitoUserPool</title>
<path fill="none" stroke="black" d="M1014.1,-107.56C997.08,-98.01 978.53,-87.61 961.03,-77.79"/>
<polygon fill="black" stroke="black" points="963.19,-74.99 952.76,-73.15 959.77,-81.1 963.19,-74.99"/>
</g>
<!-- UserPoolDomain -->
<g id="node12" class="node">
<title>UserPoolDomain</title>
<path fill="#e6e6e6" stroke="black" stroke-width="2" d="M1417.72,-180C1417.72,-180 1214.88,-180 1214.88,-180 1208.88,-180 1202.88,-174 1202.88,-168 1202.88,-168 1202.88,-120 1202.88,-120 1202.88,-114 1208.88,-108 1214.88,-108 1214.88,-108 1417.72,-108 1417.72,-108 1423.72,-108 1429.72,-114 1429.72,-120 1429.72,-120 1429.72,-168 1429.72,-168 1429.72,-174 1423.72,-180 1417.72,-180"/>
<text text-anchor="middle" x="1316.3" y="-148.2" font-family="Arial" font-size="14.00">UserPoolDomain</text>
<text text-anchor="middle" x="1316.3" y="-131.4" font-family="Arial" font-size="14.00">(AWS::Cognito::UserPoolDomain)</text>
</g>
<!-- UserPoolDomain&#45;&gt;CognitoUserPool -->
<g id="edge15" class="edge">
<title>UserPoolDomain&#45;&gt;CognitoUserPool</title>
<path fill="none" stroke="black" d="M1202.43,-110.39C1199.36,-109.58 1196.31,-108.78 1193.3,-108 1125.41,-90.45 1048.52,-72.56 988.92,-59.13"/>
<polygon fill="black" stroke="black" points="990,-55.79 979.47,-57.01 988.46,-62.62 990,-55.79"/>
</g>
</g>
</svg>
