<?xml version="1.0" encoding="UTF-8" standalone="no"?>
<!DOCTYPE svg PUBLIC "-//W3C//DTD SVG 1.1//EN"
 "http://www.w3.org/Graphics/SVG/1.1/DTD/svg11.dtd">
<!-- Generated by graphviz version 12.1.1 (20240910.0053)
 -->
<!-- Title: INFRA Pages: 1 -->
<svg width="1071pt" height="296pt"
 viewBox="0.00 0.00 1070.72 296.00" xmlns="http://www.w3.org/2000/svg" xmlns:xlink="http://www.w3.org/1999/xlink">
<g id="graph0" class="graph" transform="scale(1 1) rotate(0) translate(4 292)">
<title>INFRA</title>
<polygon fill="white" stroke="none" points="-4,4 -4,-292 1066.72,-292 1066.72,4 -4,4"/>
<!-- CallitAPI -->
<g id="node1" class="node">
<title>CallitAPI</title>
<path fill="#e78f81" stroke="black" stroke-width="2" d="M496.87,-180C496.87,-180 361.73,-180 361.73,-180 355.73,-180 349.73,-174 349.73,-168 349.73,-168 349.73,-120 349.73,-120 349.73,-114 355.73,-108 361.73,-108 361.73,-108 496.87,-108 496.87,-108 502.87,-108 508.87,-114 508.87,-120 508.87,-120 508.87,-168 508.87,-168 508.87,-174 502.87,-180 496.87,-180"/>
<text text-anchor="middle" x="429.3" y="-148.2" font-family="Arial" font-size="14.00">CallitAPI</text>
<text text-anchor="middle" x="429.3" y="-131.4" font-family="Arial" font-size="14.00">(AWS::Serverless::Api)</text>
</g>
<!-- CognitoUserPool -->
<g id="node6" class="node">
<title>CognitoUserPool</title>
<path fill="#e6e6e6" stroke="black" stroke-width="2" d="M633.6,-72C633.6,-72 479,-72 479,-72 473,-72 467,-66 467,-60 467,-60 467,-12 467,-12 467,-6 473,0 479,0 479,0 633.6,0 633.6,0 639.6,0 645.6,-6 645.6,-12 645.6,-12 645.6,-60 645.6,-60 645.6,-66 639.6,-72 633.6,-72"/>
<text text-anchor="middle" x="556.3" y="-40.2" font-family="Arial" font-size="14.00">CognitoUserPool</text>
<text text-anchor="middle" x="556.3" y="-23.4" font-family="Arial" font-size="14.00">(AWS::Cognito::UserPool)</text>
</g>
<!-- CallitAPI&#45;&gt;CognitoUserPool -->
<g id="edge1" class="edge">
<title>CallitAPI&#45;&gt;CognitoUserPool</title>
<path fill="none" stroke="black" d="M471.59,-107.7C482.51,-98.59 494.39,-88.68 505.69,-79.24"/>
<polygon fill="black" stroke="black" points="507.6,-82.21 513.03,-73.11 503.11,-76.83 507.6,-82.21"/>
</g>
<!-- MakeCall -->
<g id="node2" class="node">
<title>MakeCall</title>
<path fill="#b7e0ff" stroke="black" stroke-width="2" d="M391.6,-288C391.6,-288 223,-288 223,-288 217,-288 211,-282 211,-276 211,-276 211,-228 211,-228 211,-222 217,-216 223,-216 223,-216 391.6,-216 391.6,-216 397.6,-216 403.6,-222 403.6,-228 403.6,-228 403.6,-276 403.6,-276 403.6,-282 397.6,-288 391.6,-288"/>
<text text-anchor="middle" x="307.3" y="-256.2" font-family="Arial" font-size="14.00">MakeCall</text>
<text text-anchor="middle" x="307.3" y="-239.4" font-family="Arial" font-size="14.00">(AWS::Serverless::Function)</text>
</g>
<!-- MakeCall&#45;&gt;CallitAPI -->
<g id="edge2" class="edge">
<title>MakeCall&#45;&gt;CallitAPI</title>
<path fill="none" stroke="black" d="M347.92,-215.7C358.32,-206.67 369.6,-196.87 380.36,-187.52"/>
<polygon fill="black" stroke="black" points="382.46,-190.34 387.71,-181.14 377.87,-185.05 382.46,-190.34"/>
</g>
<!-- LogCall -->
<g id="node3" class="node">
<title>LogCall</title>
<path fill="#b7e0ff" stroke="black" stroke-width="2" d="M180.6,-288C180.6,-288 12,-288 12,-288 6,-288 0,-282 0,-276 0,-276 0,-228 0,-228 0,-222 6,-216 12,-216 12,-216 180.6,-216 180.6,-216 186.6,-216 192.6,-222 192.6,-228 192.6,-228 192.6,-276 192.6,-276 192.6,-282 186.6,-288 180.6,-288"/>
<text text-anchor="middle" x="96.3" y="-256.2" font-family="Arial" font-size="14.00">LogCall</text>
<text text-anchor="middle" x="96.3" y="-239.4" font-family="Arial" font-size="14.00">(AWS::Serverless::Function)</text>
</g>
<!-- LogCall&#45;&gt;CallitAPI -->
<g id="edge3" class="edge">
<title>LogCall&#45;&gt;CallitAPI</title>
<path fill="none" stroke="black" d="M193.04,-218.99C196.16,-217.98 199.26,-216.98 202.3,-216 247.05,-201.62 296.88,-185.99 338.43,-173.06"/>
<polygon fill="black" stroke="black" points="339.41,-176.42 347.92,-170.11 337.33,-169.74 339.41,-176.42"/>
</g>
<!-- LogCall&#45;&gt;CognitoUserPool -->
<g id="edge4" class="edge">
<title>LogCall&#45;&gt;CognitoUserPool</title>
<path fill="none" stroke="black" d="M148.81,-215.8C197.08,-184.53 271.38,-139.1 340.3,-108 377.06,-91.41 418.88,-76.76 455.87,-65.13"/>
<polygon fill="black" stroke="black" points="456.71,-68.54 465.23,-62.23 454.64,-61.85 456.71,-68.54"/>
</g>
<!-- ListPredictions -->
<g id="node4" class="node">
<title>ListPredictions</title>
<path fill="#b7e0ff" stroke="black" stroke-width="2" d="M602.6,-288C602.6,-288 434,-288 434,-288 428,-288 422,-282 422,-276 422,-276 422,-228 422,-228 422,-222 428,-216 434,-216 434,-216 602.6,-216 602.6,-216 608.6,-216 614.6,-222 614.6,-228 614.6,-228 614.6,-276 614.6,-276 614.6,-282 608.6,-288 602.6,-288"/>
<text text-anchor="middle" x="518.3" y="-256.2" font-family="Arial" font-size="14.00">ListPredictions</text>
<text text-anchor="middle" x="518.3" y="-239.4" font-family="Arial" font-size="14.00">(AWS::Serverless::Function)</text>
</g>
<!-- ListPredictions&#45;&gt;CallitAPI -->
<g id="edge5" class="edge">
<title>ListPredictions&#45;&gt;CallitAPI</title>
<path fill="none" stroke="black" d="M488.66,-215.7C481.46,-207.12 473.67,-197.84 466.17,-188.91"/>
<polygon fill="black" stroke="black" points="468.89,-186.71 459.78,-181.3 463.53,-191.21 468.89,-186.71"/>
</g>
<!-- ListPredictions&#45;&gt;CognitoUserPool -->
<g id="edge6" class="edge">
<title>ListPredictions&#45;&gt;CognitoUserPool</title>
<path fill="none" stroke="black" d="M524.57,-215.66C530.98,-179.57 540.97,-123.36 548.02,-83.64"/>
<polygon fill="black" stroke="black" points="551.45,-84.34 549.75,-73.88 544.56,-83.11 551.45,-84.34"/>
</g>
<!-- AuthTokenFunction -->
<g id="node5" class="node">
<title>AuthTokenFunction</title>
<path fill="#b7e0ff" stroke="black" stroke-width="2" d="M813.6,-288C813.6,-288 645,-288 645,-288 639,-288 633,-282 633,-276 633,-276 633,-228 633,-228 633,-222 639,-216 645,-216 645,-216 813.6,-216 813.6,-216 819.6,-216 825.6,-222 825.6,-228 825.6,-228 825.6,-276 825.6,-276 825.6,-282 819.6,-288 813.6,-288"/>
<text text-anchor="middle" x="729.3" y="-256.2" font-family="Arial" font-size="14.00">AuthTokenFunction</text>
<text text-anchor="middle" x="729.3" y="-239.4" font-family="Arial" font-size="14.00">(AWS::Serverless::Function)</text>
</g>
<!-- AuthTokenFunction&#45;&gt;CallitAPI -->
<g id="edge7" class="edge">
<title>AuthTokenFunction&#45;&gt;CallitAPI</title>
<path fill="none" stroke="black" d="M632.73,-216.88C596.4,-204.04 555.27,-189.51 519.54,-176.89"/>
<polygon fill="black" stroke="black" points="521.15,-173.74 510.56,-173.71 518.82,-180.34 521.15,-173.74"/>
</g>
<!-- AuthTokenFunction&#45;&gt;CognitoUserPool -->
<g id="edge8" class="edge">
<title>AuthTokenFunction&#45;&gt;CognitoUserPool</title>
<path fill="none" stroke="black" d="M636.67,-215.56C620.75,-206.03 605.69,-194.29 594.3,-180 572.43,-152.57 563.08,-113.72 559.11,-83.43"/>
<polygon fill="black" stroke="black" points="562.63,-83.33 558.02,-73.79 555.67,-84.12 562.63,-83.33"/>
</g>
<!-- UserPoolClient -->
<g id="node7" class="node">
<title>UserPoolClient</title>
<path fill="#e6e6e6" stroke="black" stroke-width="2" d="M805.5,-180C805.5,-180 615.1,-180 615.1,-180 609.1,-180 603.1,-174 603.1,-168 603.1,-168 603.1,-120 603.1,-120 603.1,-114 609.1,-108 615.1,-108 615.1,-108 805.5,-108 805.5,-108 811.5,-108 817.5,-114 817.5,-120 817.5,-120 817.5,-168 817.5,-168 817.5,-174 811.5,-180 805.5,-180"/>
<text text-anchor="middle" x="710.3" y="-148.2" font-family="Arial" font-size="14.00">UserPoolClient</text>
<text text-anchor="middle" x="710.3" y="-131.4" font-family="Arial" font-size="14.00">(AWS::Cognito::UserPoolClient)</text>
</g>
<!-- AuthTokenFunction&#45;&gt;UserPoolClient -->
<g id="edge9" class="edge">
<title>AuthTokenFunction&#45;&gt;UserPoolClient</title>
<path fill="none" stroke="black" d="M722.97,-215.7C721.58,-207.93 720.08,-199.57 718.62,-191.43"/>
<polygon fill="black" stroke="black" points="722.08,-190.86 716.87,-181.63 715.19,-192.09 722.08,-190.86"/>
</g>
<!-- UserPoolClient&#45;&gt;CognitoUserPool -->
<g id="edge10" class="edge">
<title>UserPoolClient&#45;&gt;CognitoUserPool</title>
<path fill="none" stroke="black" d="M659.02,-107.7C645.58,-98.46 630.97,-88.39 617.09,-78.84"/>
<polygon fill="black" stroke="black" points="619.09,-75.97 608.86,-73.18 615.12,-81.73 619.09,-75.97"/>
</g>
<!-- UserPoolDomain -->
<g id="node8" class="node">
<title>UserPoolDomain</title>
<path fill="#e6e6e6" stroke="black" stroke-width="2" d="M1050.72,-180C1050.72,-180 847.88,-180 847.88,-180 841.88,-180 835.88,-174 835.88,-168 835.88,-168 835.88,-120 835.88,-120 835.88,-114 841.88,-108 847.88,-108 847.88,-108 1050.72,-108 1050.72,-108 1056.72,-108 1062.72,-114 1062.72,-120 1062.72,-120 1062.72,-168 1062.72,-168 1062.72,-174 1056.72,-180 1050.72,-180"/>
<text text-anchor="middle" x="949.3" y="-148.2" font-family="Arial" font-size="14.00">UserPoolDomain</text>
<text text-anchor="middle" x="949.3" y="-131.4" font-family="Arial" font-size="14.00">(AWS::Cognito::UserPoolDomain)</text>
</g>
<!-- UserPoolDomain&#45;&gt;CognitoUserPool -->
<g id="edge11" class="edge">
<title>UserPoolDomain&#45;&gt;CognitoUserPool</title>
<path fill="none" stroke="black" d="M835.4,-110.5C832.34,-109.66 829.3,-108.82 826.3,-108 770.33,-92.68 707.67,-76.16 656.8,-62.92"/>
<polygon fill="black" stroke="black" points="657.83,-59.57 647.27,-60.44 656.07,-66.34 657.83,-59.57"/>
</g>
</g>
</svg>
